<svg xmlns="http://www.w3.org/2000/svg" width="48" height="48" viewBox="0 0 48 48" fill="none"><circle cx="24" cy="24" r="24" fill="#C1E4FF"></circle><path d="M12 35H12.0133M17.3333 35C17.3333 33.5855 16.7714 32.2289 15.7712 31.2287C14.771 30.2286 13.4145 29.6666 12 29.6666M22.6667 35C22.6667 32.171 21.5429 29.4579 19.5425 27.4575C17.5421 25.4571 14.829 24.3333 12 24.3333" stroke="#131315" stroke-width="2.66667" stroke-linecap="round" stroke-linejoin="round"></path><path d="M12 19.6666V16.3333C12 15.626 12.281 14.9478 12.781 14.4477C13.2811 13.9476 13.9594 13.6666 14.6667 13.6666H33.3333C34.0406 13.6666 34.7189 13.9476 35.2189 14.4477C35.719 14.9478 36 15.626 36 16.3333V32.3333C36 33.0405 35.719 33.7188 35.2189 34.2189C34.7189 34.719 34.0406 35 33.3333 35H28" stroke="#131315" stroke-width="2.66667" stroke-linecap="round" stroke-linejoin="round"></path></svg>