
<svg xmlns="http://www.w3.org/2000/svg" width="48" height="48" viewBox="0 0 48 48" fill="none"><circle cx="24" cy="24" r="24" fill="#C1E4FF"></circle><path d="M32.4929 28.3377C35.1563 26.8617 37.1756 25.7372 37.3496 25.6499C37.9062 25.3509 38.4813 24.5602 37.3496 23.946C36.9842 23.7529 35.017 22.6632 32.4929 21.2582L28.9941 24.8241L32.4927 28.3377H32.4929Z" fill="#FFD900"></path><path d="M28.9938 24.8241L17.8528 36.1556C18.1141 36.1906 18.4094 36.1206 18.7576 35.9275C19.4884 35.5239 27.2351 31.2544 32.4928 28.3385L28.9938 24.8241V24.8241Z" fill="#F43249"></path><path d="M28.9941 24.8241L32.4927 21.2755C32.4927 21.2755 19.5415 14.1427 18.7577 13.7219C18.4628 13.5449 18.132 13.4926 17.8359 13.5449L28.9941 24.8239V24.8241Z" fill="#00EE76"></path><path d="M28.994 24.8242L17.8356 13.5452C17.3827 13.6508 17 14.0545 17 14.8799V34.8204C17 35.5763 17.2962 36.1207 17.8528 36.173L28.9938 24.824L28.994 24.8242Z" fill="#00D3FF"></path></svg>