<svg xmlns="http://www.w3.org/2000/svg" width="48" height="48" viewBox="0 0 48 48" fill="none"><circle cx="24" cy="24" r="24" fill="#DDF3FC"></circle><path d="M37.7301 23.9419L35.2168 22.5172C35.3745 23.1347 35.4827 23.7635 35.5405 24.3978C35.5961 24.9658 35.6141 25.5367 35.5943 26.107L37.7301 24.8699C37.8117 24.8232 37.8795 24.7561 37.9268 24.6753C37.9741 24.5945 37.9992 24.5028 37.9998 24.4094C38.0011 24.3149 37.9767 24.2217 37.9293 24.1398C37.8819 24.0578 37.8131 23.99 37.7301 23.9436V23.9419ZM31.4202 27.835C31.0374 27.4816 30.6929 27.0906 30.3362 26.7105C30.1941 26.5536 30.019 26.4295 29.8233 26.3472C29.6276 26.2648 29.4161 26.2261 29.2037 26.2339C27.4779 26.2392 25.7518 26.2445 24.0207 26.2339C23.7799 26.2247 23.5401 26.2691 23.3188 26.3637C23.0976 26.4584 22.9004 26.601 22.7417 26.781C22.2132 27.3487 21.6749 27.911 21.1173 28.4464C20.8117 28.7381 20.4814 29.0032 20.1302 29.2389C19.9514 29.3678 19.7448 29.4538 19.5267 29.4898C19.3087 29.5259 19.0852 29.5112 18.8739 29.4468C18.6626 29.3824 18.4692 29.2701 18.3091 29.1188C18.149 28.9675 18.0265 28.7813 17.9513 28.575C17.6072 27.7331 17.5857 26.8388 17.5372 25.9498C17.5318 25.8321 17.5372 25.7141 17.5372 25.5964C17.5641 23.251 18.1142 21.0606 19.4841 19.1169C20.2554 18.0192 21.2962 17.3873 22.6879 17.4463C23.5291 17.4972 24.3411 17.7708 25.0397 18.2388C25.9943 18.8493 26.9435 18.8921 27.8983 18.362L16.8091 12.0696C16.7267 12.0231 16.6334 11.9991 16.5386 12C16.4438 12.001 16.351 12.0269 16.2696 12.0751C16.1877 12.1214 16.1196 12.1884 16.0723 12.2693C16.0249 12.3502 16 12.4421 16 12.5356L16.1079 36.4673C16.1071 36.561 16.1317 36.6532 16.1791 36.7342C16.2266 36.8152 16.2951 36.8821 16.3775 36.9278C16.4594 36.9751 16.5524 37.0001 16.6471 37.0001C16.7418 37.0001 16.8349 36.9751 16.9167 36.9278L34.0572 26.9994L31.8729 28.2632C31.7245 28.1179 31.5736 27.9751 31.4202 27.835Z" fill="#207D48"></path><path fill-rule="evenodd" clip-rule="evenodd" d="M35.5458 24.3968C35.488 23.7628 35.3797 23.1343 35.2222 22.5172C35.1305 22.1691 35.0282 21.8263 34.9041 21.4891C35.0767 25.0502 31.4369 24.5463 31.4369 24.5463H24.7483L23.168 26.4313C23.4281 26.2877 23.7228 26.2174 24.0202 26.2278C25.746 26.244 27.4721 26.2384 29.2032 26.2278C29.4153 26.2225 29.626 26.2623 29.8214 26.3445C30.0167 26.4268 30.1921 26.5495 30.3357 26.7045C30.6916 27.0846 31.0369 27.4748 31.4197 27.8289C31.5708 27.9734 31.7272 28.1127 31.8782 28.2574L34.0625 26.9936L35.605 26.0993C35.6201 25.531 35.6002 24.9623 35.5456 24.3964L35.5458 24.3968Z" fill="#069E4E"></path><path fill-rule="evenodd" clip-rule="evenodd" d="M34.9041 21.4946C34.6016 20.6594 34.1899 19.8672 33.6797 19.1384C32.9039 18.031 31.8613 17.381 30.4599 17.4407C29.6191 17.4889 28.8067 17.7608 28.1081 18.2279C28.038 18.2761 27.9626 18.3136 27.8923 18.3565C26.9378 18.8861 25.9939 18.8437 25.0337 18.2279C24.3348 17.7608 23.5229 17.4872 22.6819 17.4354C21.2958 17.3765 20.2496 18.0084 19.4781 19.1008C18.1082 21.0447 17.5581 23.2348 17.5312 25.5803C17.5312 25.698 17.5258 25.816 17.5312 25.9337C17.5797 26.8227 17.5959 27.717 17.9465 28.5576C18.0217 28.764 18.1442 28.9502 18.3043 29.1015C18.4645 29.2528 18.6578 29.3651 18.8691 29.4294C19.0804 29.4938 19.3039 29.5086 19.522 29.4725C19.74 29.4364 19.9466 29.3505 20.1255 29.2216C20.4767 28.9858 20.8069 28.7207 21.1125 28.4291C21.668 27.8882 22.2095 27.3331 22.737 26.7637C22.8612 26.627 23.0069 26.5112 23.1685 26.4209L24.7489 24.5413H31.4307C31.436 24.5519 35.0768 25.0608 34.9041 21.4944V21.4946ZM23.4646 22.8815C23.2003 22.8868 22.936 22.8815 22.6339 22.8815C22.6339 23.3581 22.6232 23.7864 22.6392 24.2202C22.6446 24.4664 22.5423 24.5572 22.3049 24.5521C21.2747 24.536 21.4321 24.6698 21.4204 23.7168C21.4151 23.4544 21.4204 23.192 21.4204 22.8868C20.9728 22.8868 20.5522 22.8706 20.1369 22.892C19.8563 22.9026 19.7324 22.8116 19.7594 22.5278C19.7755 22.3711 19.7755 22.2132 19.7594 22.0565C19.7324 21.778 19.8403 21.6655 20.1262 21.6764C20.5415 21.6925 20.9505 21.6817 21.4207 21.6817V20.4819C21.4207 20.0428 21.426 20.0319 21.8629 20.0375C22.7474 20.0428 22.6235 19.9251 22.6342 20.8032V21.6867C23.0873 21.6867 23.5186 21.6973 23.9449 21.6814C24.2198 21.6708 24.3117 21.7832 24.3061 22.0456C24.2843 23.0261 24.4354 22.8651 23.4646 22.8815ZM31.1989 18.6831C31.4085 18.681 31.6105 18.7605 31.7617 18.9045C31.9129 19.0485 32.0014 19.2455 32.008 19.4535C32.0091 19.4839 32.0073 19.5144 32.0027 19.5445C31.9851 19.7277 31.9052 19.8995 31.7762 20.0317C31.7032 20.106 31.616 20.1651 31.5197 20.2056C31.4234 20.2461 31.32 20.2671 31.2154 20.2674C31.0294 20.2666 30.8491 20.2032 30.7041 20.0874C30.5591 19.9716 30.4579 19.8104 30.4172 19.6302C30.4062 19.5846 30.4008 19.5379 30.401 19.491C30.3992 19.279 30.4821 19.0748 30.6317 18.9234C30.7812 18.7719 30.9851 18.6855 31.1987 18.6831H31.1989ZM30.4061 23.101V23.0957C30.4068 23.0153 30.4214 22.9356 30.4493 22.86C30.5056 22.7027 30.6093 22.5665 30.7463 22.4697C30.8834 22.373 31.047 22.3204 31.2152 22.3191C31.3256 22.3211 31.4343 22.346 31.5345 22.3921C31.6347 22.4382 31.7241 22.5045 31.7971 22.5868C31.9321 22.7407 32.0034 22.9396 31.9966 23.1436C31.9958 23.2467 31.9742 23.3485 31.9331 23.4431C31.892 23.5377 31.8322 23.6232 31.7574 23.6946C31.6825 23.766 31.594 23.8217 31.4971 23.8586C31.4002 23.8955 31.2968 23.9127 31.1931 23.9094C31.0878 23.908 30.9839 23.886 30.8872 23.8446C30.7905 23.8031 30.7031 23.7431 30.6299 23.668C30.5567 23.5928 30.4993 23.504 30.4608 23.4067C30.4223 23.3094 30.4037 23.2055 30.4059 23.101H30.4061ZM29.117 20.4718C29.1298 20.4709 29.1427 20.4727 29.1548 20.4771C29.3618 20.4939 29.555 20.5874 29.6959 20.739C29.8367 20.8906 29.9151 21.0893 29.9154 21.2955C29.9064 21.5033 29.8175 21.6997 29.6669 21.8442C29.5164 21.9887 29.3157 22.0703 29.1063 22.0721C28.9039 22.0721 28.7092 21.9948 28.5627 21.8563C28.4161 21.7177 28.3287 21.5285 28.3188 21.3278V21.2582C28.323 21.0499 28.4087 20.8513 28.5576 20.7044C28.7065 20.5575 28.9071 20.4739 29.117 20.471V20.4718ZM33.4101 22.0247C33.3239 22.0566 33.2326 22.0729 33.1405 22.0728C33.0343 22.0732 32.929 22.0521 32.8312 22.0109C32.7334 21.9697 32.645 21.9092 32.5714 21.8332C32.4978 21.7571 32.4405 21.667 32.403 21.5683C32.3654 21.4696 32.3484 21.3643 32.353 21.2589C32.3576 21.1048 32.4061 20.9551 32.493 20.8272C32.5799 20.6994 32.7015 20.5987 32.8438 20.5368C32.9405 20.494 33.0453 20.4721 33.1512 20.4725C33.3657 20.4811 33.5686 20.5718 33.7173 20.7255C33.8661 20.8792 33.9492 21.084 33.9494 21.2972C33.9421 21.4578 33.8869 21.6127 33.7909 21.7422C33.695 21.8717 33.5624 21.97 33.4101 22.0247Z" fill="#59BB64"></path><path d="M30.7674 20.1343C30.9001 20.2216 31.0558 20.2682 31.215 20.2681C31.3195 20.2678 31.423 20.2468 31.5193 20.2063C31.6156 20.1659 31.7028 20.1067 31.7758 20.0324C31.9048 19.9003 31.9847 19.7284 32.0022 19.5452C32.0066 19.5151 32.0083 19.4846 32.0076 19.4542C32.0018 19.246 31.9137 19.0484 31.7622 18.9042C31.6108 18.76 31.4083 18.6809 31.1985 18.6839C30.9842 18.6873 30.7799 18.7749 30.6304 18.9274C30.4808 19.0799 30.3981 19.2849 30.4003 19.4978C30.4004 19.5446 30.4059 19.5913 30.4166 19.6369C30.439 19.7388 30.4816 19.8352 30.5418 19.9207C30.6019 20.0062 30.6785 20.079 30.7672 20.135L30.7674 20.1343ZM29.1063 22.0728C29.316 22.0719 29.5173 21.9907 29.668 21.8459C29.8188 21.7012 29.9074 21.5043 29.9154 21.2963C29.9151 21.09 29.8367 20.8914 29.6958 20.7398C29.555 20.5882 29.3619 20.4947 29.1548 20.4778H29.117C28.9072 20.4776 28.7058 20.5594 28.5563 20.7056C28.4069 20.8519 28.3215 21.0506 28.3186 21.2589V21.3285C28.3286 21.5292 28.4159 21.7184 28.5625 21.857C28.7091 21.9956 28.9037 22.0728 29.1061 22.0728H29.1063ZM32.3531 21.2589C32.3485 21.3643 32.3655 21.4696 32.403 21.5683C32.4405 21.667 32.4979 21.7571 32.5715 21.8332C32.6451 21.9092 32.7335 21.9697 32.8313 22.0109C32.9291 22.0521 33.0343 22.0732 33.1406 22.0728C33.2326 22.0729 33.3239 22.0566 33.4102 22.0247C33.5626 21.97 33.6952 21.8716 33.7912 21.7419C33.8872 21.6123 33.9423 21.4572 33.9494 21.2965C33.9484 21.0836 33.8649 20.8792 33.7164 20.7257C33.5678 20.5722 33.3655 20.4813 33.1512 20.4718C33.0459 20.4717 32.9415 20.4917 32.8438 20.5307C32.7001 20.5923 32.5773 20.6938 32.4903 20.823C32.4032 20.9522 32.3556 21.1035 32.3531 21.2589ZM31.199 23.9096C31.3569 23.9115 31.5122 23.8687 31.6466 23.7864C31.7546 23.7167 31.8437 23.6216 31.9058 23.5095C31.9679 23.3974 32.0011 23.2718 32.0025 23.1439C32.0084 22.94 31.9372 22.7414 31.8029 22.587C31.7308 22.5038 31.6415 22.4369 31.5412 22.3907C31.4408 22.3445 31.3317 22.3202 31.221 22.3194C31.0532 22.3217 30.89 22.3747 30.7532 22.4713C30.6164 22.5679 30.5124 22.7036 30.4551 22.8603C30.4273 22.9358 30.4127 23.0155 30.412 23.0959V23.1012C30.4089 23.206 30.4269 23.3102 30.465 23.4079C30.5031 23.5056 30.5605 23.5947 30.6338 23.67C30.7071 23.7454 30.7949 23.8054 30.8919 23.8465C30.9889 23.8877 31.0932 23.9091 31.1987 23.9096H31.199Z" fill="white"></path><path fill-rule="evenodd" clip-rule="evenodd" d="M23.9444 21.6713C23.5129 21.6874 23.0815 21.6766 22.6337 21.6766V20.7931C22.6284 19.9202 22.7469 20.038 21.8625 20.0274C21.426 20.0221 21.4202 20.0327 21.4202 20.4718V21.6713C20.9564 21.6713 20.5411 21.6874 20.1257 21.666C19.8348 21.6554 19.7267 21.7678 19.7589 22.0461C19.7751 22.2028 19.7751 22.3608 19.7589 22.5175C19.7267 22.8063 19.8559 22.8976 20.1364 22.8817C20.5571 22.8656 20.9777 22.8764 21.4256 22.8764C21.4256 23.1816 21.4202 23.444 21.4256 23.7064C21.4362 24.6597 21.2801 24.5249 22.31 24.5418C22.5474 24.5471 22.6495 24.4561 22.639 24.2098C22.6284 23.7813 22.6337 23.3477 22.6337 22.8711C22.9358 22.8711 23.2001 22.8764 23.4644 22.8711C24.4342 22.855 24.2841 23.0155 24.3057 22.0249C24.3113 21.7731 24.2196 21.6607 23.9444 21.6713Z" fill="white"></path></svg>