<svg xmlns="http://www.w3.org/2000/svg" width="48" height="48" viewBox="0 0 48 48" fill="none"><circle cx="24" cy="24" r="24" fill="#DDF3FC"></circle><path d="M16.9091 28.6C21.2772 28.6 24.8182 25.1078 24.8182 20.8C24.8182 16.4922 21.2772 13 16.9091 13C12.541 13 9 16.4922 9 20.8C9 25.1078 12.541 28.6 16.9091 28.6Z" fill="#4285F4"></path><path d="M30.091 28.6C32.2751 28.6 34.0456 26.8539 34.0456 24.7C34.0456 22.5461 32.2751 20.8 30.091 20.8C27.907 20.8 26.1365 22.5461 26.1365 24.7C26.1365 26.8539 27.907 28.6 30.091 28.6Z" fill="#EA4335"></path><path d="M30.0909 39C32.639 39 34.7046 36.9629 34.7046 34.45C34.7046 31.9371 32.639 29.9 30.0909 29.9C27.5429 29.9 25.4773 31.9371 25.4773 34.45C25.4773 36.9629 27.5429 39 30.0909 39Z" fill="#FBBC05"></path><path d="M36.0227 22.1C37.1147 22.1 38 21.227 38 20.15C38 19.0731 37.1147 18.2 36.0227 18.2C34.9307 18.2 34.0454 19.0731 34.0454 20.15C34.0454 21.227 34.9307 22.1 36.0227 22.1Z" fill="#34A853"></path></svg>