<svg xmlns="http://www.w3.org/2000/svg" width="48" height="48" viewBox="0 0 48 48" fill="none"><circle cx="24" cy="24" r="24" fill="#C1E4FF"></circle><path d="M30.875 11.0134C30.651 11.0375 30.4417 11.1364 30.281 11.2942L24 17.573L20.719 14.2917C20.6244 14.1973 20.5122 14.1224 20.3887 14.0713C20.2652 14.0202 20.1328 13.9939 19.9991 13.994C19.8655 13.994 19.7331 14.0204 19.6096 14.0715C19.4862 14.1227 19.374 14.1977 19.2795 14.2922C19.0887 14.4831 18.9815 14.7419 18.9816 15.0117C18.9817 15.1453 19.008 15.2776 19.0592 15.401C19.1104 15.5244 19.1854 15.6365 19.28 15.731L22.562 19.0093H14C13.2044 19.0093 12.4413 19.3252 11.8787 19.8875C11.3161 20.4498 11 21.2125 11 22.0077V34.0015C11 34.7968 11.3161 35.5595 11.8787 36.1218C12.4413 36.6841 13.2044 37 14 37H34C34.7956 37 35.5587 36.6841 36.1213 36.1218C36.6839 35.5595 37 34.7968 37 34.0015V22.0077C37 21.2125 36.6839 20.4498 36.1213 19.8875C35.5587 19.3252 34.7956 19.0093 34 19.0093H25.437L31.719 12.7315C31.8764 12.5853 31.9824 12.3923 32.0215 12.1811C32.0605 11.9699 32.0305 11.7518 31.9358 11.559C31.8411 11.3662 31.6868 11.209 31.4957 11.1108C31.3046 11.0125 31.087 10.9784 30.875 11.0134V11.0134ZM21.5 21.0082C28.945 21.0082 30 21.0292 30 28.0046C30 34.981 28.872 35.001 21.5 35.001C14.094 35.001 13 34.9271 13 28.0046C13 21.0842 14.094 21.0082 21.5 21.0082ZM33.5 23.9447C34.366 23.9447 35.063 24.6404 35.063 25.5059C35.0634 25.7112 35.0232 25.9145 34.9448 26.1042C34.8664 26.2939 34.7513 26.4663 34.6061 26.6114C34.4609 26.7566 34.2884 26.8716 34.0986 26.95C33.9088 27.0284 33.7054 27.0685 33.5 27.0681C33.2946 27.0686 33.0911 27.0286 32.9012 26.9503C32.7114 26.872 32.5389 26.7569 32.3936 26.6117C32.2484 26.4666 32.1333 26.2941 32.0549 26.1044C31.9765 25.9146 31.9365 25.7112 31.937 25.5059C31.9366 25.3007 31.9768 25.0973 32.0552 24.9076C32.1336 24.7179 32.2487 24.5455 32.3939 24.4004C32.5391 24.2553 32.7116 24.1402 32.9014 24.0618C33.0912 23.9835 33.2946 23.9433 33.5 23.9437V23.9447ZM33.5 27.9427C34.366 27.9427 35.063 28.6383 35.063 29.5039C35.0634 29.7091 35.0232 29.9124 34.9448 30.1022C34.8664 30.2919 34.7513 30.4642 34.6061 30.6094C34.4609 30.7545 34.2884 30.8696 34.0986 30.9479C33.9088 31.0263 33.7054 31.0665 33.5 31.0661C33.2946 31.0666 33.0911 31.0265 32.9012 30.9482C32.7114 30.8699 32.5389 30.7548 32.3936 30.6097C32.2484 30.4645 32.1333 30.2921 32.0549 30.1023C31.9765 29.9125 31.9365 29.7092 31.937 29.5039C31.9366 29.2986 31.9768 29.0953 32.0552 28.9056C32.1336 28.7159 32.2487 28.5435 32.3939 28.3983C32.5391 28.2532 32.7116 28.1381 32.9014 28.0598C33.0912 27.9814 33.2946 27.9413 33.5 27.9417V27.9427Z" fill="#131315"></path></svg>